<?xml version="1.0" encoding="utf-8"?>
<!-- Svg Vector Icons : http://www.onlinewebfonts.com/icon -->
<!DOCTYPE svg PUBLIC "-//W3C//DTD SVG 1.1//EN" "http://www.w3.org/Graphics/SVG/1.1/DTD/svg11.dtd">
<svg version="1.1" xmlns="http://www.w3.org/2000/svg" xmlns:xlink="http://www.w3.org/1999/xlink" x="0px" y="0px" viewBox="0 0 256 256" enable-background="new 0 0 256 256" xml:space="preserve">
<metadata> Svg Vector Icons : http://www.onlinewebfonts.com/icon </metadata>
<g> <path fill="#143C3C" d="M102.7,39.5H60.6v111.9c0,27.7-9.5,35.4-26,35.4c-7.7,0-14.7-1.3-20.1-3.2L10,216.5 c7.7,2.7,19.6,4.3,28.9,4.3c38,0,63.8-17.8,63.8-69V39.5L102.7,39.5z M194.6,35.3c-40.8,0-66.6,23.2-66.6,53.8 c0,26.4,19.9,42.9,48.8,53.6c20.9,7.5,29.2,14.1,29.2,25c0,12-9.6,19.7-27.6,19.7c-16.8,0-32-5.6-42.4-11.2v0l-8,33.3 c9.8,5.6,28.2,11.2,48,11.2c47.8,0,70-25.6,70-55.7c0-25.6-14.2-42.1-44.9-53.8c-22.7-9.1-32.3-14.1-32.3-25.6 c0-9.1,8.3-17.3,25.3-17.3c16.8,0,28.3,5.6,35,9.1l10.1-33.7C228.7,39.1,214.5,35.3,194.6,35.3L194.6,35.3z"/></g>
</svg>