<?xml version="1.0" encoding="utf-8"?>
<!-- Svg Vector Icons : http://www.onlinewebfonts.com/icon -->
<!DOCTYPE svg PUBLIC "-//W3C//DTD SVG 1.1//EN" "http://www.w3.org/Graphics/SVG/1.1/DTD/svg11.dtd">
<svg version="1.1" xmlns="http://www.w3.org/2000/svg" xmlns:xlink="http://www.w3.org/1999/xlink" x="0px" y="0px" viewBox="0 0 256 256" enable-background="new 0 0 256 256" xml:space="preserve">
<metadata> Svg Vector Icons : http://www.onlinewebfonts.com/icon </metadata>
<g><g><path fill="#143C3C" d="M89.6,123.7c2.3-0.4,4.7-0.7,7.1-0.7h-1.9h63.8c2.8,0,5.4-0.4,7.9-1.1c11.9-3.3,20.5-13.8,20.5-26.8v-19V41.6c0-15.3-13-26.7-28.4-29.3c-9.8-1.6-24.1-2.4-33.9-2.3c-9.7,0-19,0.9-27.2,2.3C73.4,16.5,69,25.3,69,41.6v17.6h59V69H49.8C27.9,69,10.2,95.1,10,127.5c0,0.1,0,0.3,0,0.5c0,5.9,0.6,11.5,1.7,16.8c4.9,24.4,20.1,42.2,38.2,42.2h9.3v-1.6v-26.6C59.2,142.3,71.6,127,89.6,123.7z M95.8,48.7c-5.9,0-10.7-4.8-10.7-10.7c0-5.9,4.8-10.8,10.7-10.8c5.9,0,10.7,4.8,10.7,10.8C106.5,43.9,101.7,48.7,95.8,48.7z"/><path fill="#143C3C" d="M243.5,107.4C237.9,85,223.3,69,206.2,69h-9.3v1.6V94c0,20.9-13.7,35.9-30.4,38.5c-1.7,0.3-3.4,0.4-5.1,0.4H97.5c-2.8,0-5.5,0.4-8,1C77.7,137,69,146.8,69,159.5v20.2v33.4c0,15.3,15.3,24.2,30.4,28.6c18,5.3,37.7,6.2,59.2,0c14.3-4.1,28.4-12.4,28.4-28.6v-16.3h-59V187h78.2c15.5,0,28.9-13.1,35.5-32.3c2.7-8,4.3-17.1,4.3-26.7C246,120.8,245.1,113.8,243.5,107.4z M159.9,205.9c5.9,0,10.7,4.8,10.7,10.7c0,5.9-4.8,10.8-10.7,10.8c-5.9,0-10.7-4.8-10.7-10.8C149.2,210.7,154,205.9,159.9,205.9z"/></g></g>
</svg>